inDegrees=no
num_controls=7
num_derivatives=13
num_iterations=146
num_multipliers=7
num_parameters=0
num_slacks=7
num_states=26
objective=5.685137
objective_accelerations=0.859883
objective_balance=0.076291
objective_effort=0.470149
objective_height=4.195810
objective_ligament=0.083004
solver_duration=1584.952008
status=Solve_Succeeded
success=true
DataType=double
version=3
OpenSimVersion=4.4-2022-07-23-0e9fedc
endheader
time	/jointset/ground_pelvis/pelvis_tilt/value	/jointset/ground_pelvis/pelvis_tx/value	/jointset/ground_pelvis/pelvis_ty/value	/jointset/hip_l/hip_flexion_l/value	/jointset/hip_l/hip_adduction_l/value	/jointset/hip_l/hip_rotation_l/value	/jointset/back/lumbar_extension/value	/jointset/patellofemoral_l/patellar_flexion_l/value	/jointset/knee_l/knee_flexion_l/value	/jointset/knee_l/knee_adduction_l/value	/jointset/knee_l/knee_rotation_l/value	/jointset/ankle_l/ankle_angle_l/value	/jointset/subtalar_l/subtalar_angle_l/value	/jointset/ground_pelvis/pelvis_tilt/speed	/jointset/ground_pelvis/pelvis_tx/speed	/jointset/ground_pelvis/pelvis_ty/speed	/jointset/hip_l/hip_flexion_l/speed	/jointset/hip_l/hip_adduction_l/speed	/jointset/hip_l/hip_rotation_l/speed	/jointset/back/lumbar_extension/speed	/jointset/patellofemoral_l/patellar_flexion_l/speed	/jointset/knee_l/knee_flexion_l/speed	/jointset/knee_l/knee_adduction_l/speed	/jointset/knee_l/knee_rotation_l/speed	/jointset/ankle_l/ankle_angle_l/speed	/jointset/subtalar_l/subtalar_angle_l/speed	/forceset/tau_hip_flexion_l	/forceset/tau_hip_adduction_l	/forceset/tau_hip_rotation_l	/forceset/tau_knee_flexion_l	/forceset/tau_ankle_angle_l	/forceset/tau_subtalar_angle_l	/forceset/tau_lumbar_extension	lambda_cid13_p0	lambda_cid13_p1	lambda_cid13_p2	lambda_cid13_p3	lambda_cid13_p4	lambda_cid13_p5	lambda_cid14_p0	/jointset/ground_pelvis/pelvis_tilt/accel	/jointset/ground_pelvis/pelvis_tx/accel	/jointset/ground_pelvis/pelvis_ty/accel	/jointset/hip_l/hip_flexion_l/accel	/jointset/hip_l/hip_adduction_l/accel	/jointset/hip_l/hip_rotation_l/accel	/jointset/back/lumbar_extension/accel	/jointset/patellofemoral_l/patellar_flexion_l/accel	/jointset/knee_l/knee_flexion_l/accel	/jointset/knee_l/knee_adduction_l/accel	/jointset/knee_l/knee_rotation_l/accel	/jointset/ankle_l/ankle_angle_l/accel	/jointset/subtalar_l/subtalar_angle_l/accel	gamma_cid13_p0	gamma_cid13_p1	gamma_cid13_p2	gamma_cid13_p3	gamma_cid13_p4	gamma_cid13_p5	gamma_cid14_p0
1.5	-0.3487623029710628	-0.03851724396478838	0.7066566986303672	1.375678628728172	-0.2577711563235848	-0.01022613321498054	-0.3692625642036217	1.078752884359375	1.078752884359374	-0.0173723030326557	0.1745095450617988	0.2583347320377852	0.05879255832421127	0.3756878358506239	0.102291222570079	0.7581908830619095	-2.550890227244528	-0.08180748045415277	-0.4795051863425532	0.5340051421782218	-2.774072528524592	-2.774072528524645	-0.4139207921637066	-0.002078554848067585	-0.7501760307308208	-0.2938731839269733	-0.2141271558902832	-0.004431170591494699	-0.007006430905014511	-0.3010492896323542	0.09798134809740883	0.02689778715531492	0.2122609787681198	-5.742857975735577	-10.46359320391475	1.022943113168227	-10.10074200785022	-603.4502655040752	-65.116887970577	-4.657695709321479	1.201822648779544	0.9813549828961714	-0.6069574867031833	-2.08767558320384	0.04399393955484997	-0.9316021444098618	2.27560235893066	-1.861863240113431	-1.861863240113487	-0.2146400827917767	-0.2160329929203326	-1.162984896540112	0.1400685587813204	-2.11208644653867e-07	4.92009568152281e-06	4.405146872231087e-06	9.364047944093759e-07	9.606300226556299e-08	3.583109580854855e-06	-2.091617013079437e-08
1.51	-0.3449460124386939	-0.03744542328653992	0.7142065683460918	1.350068349064053	-0.2585871575151367	-0.01507398744781309	-0.3638094566661185	1.050922178942995	1.050922178942981	-0.02151783530590436	0.1744822694915591	0.250775617236691	0.05586083312447027	0.3874960788393343	0.1120565112252743	0.7516088306592043	-2.570830815934744	-0.08133432663981507	-0.4900207262406712	0.5565634908050762	-2.791691033996206	-2.791691033996187	-0.4151680480787531	-0.003414788156713549	-0.7615171781609335	-0.292371562166325	-0.2075603678517985	-0.004512530642866599	-0.007136877138979745	-0.295634142636766	0.09930705455536018	0.02670990468089671	0.2065301780776111	-4.945007409926503	-10.72040053258371	1.290859116504836	-10.19617603146441	-596.7234116819428	-64.6898361860959	-6.08390725782101	1.15920154413146	0.9718550866343703	-0.7099485556899801	-1.897019953842826	0.05672656482659753	-1.104745087809105	2.238019937031121	-1.655215030771504	-1.655215030760672	-0.07632101645615247	-0.09914896940596937	-1.099986203936394	0.1688546469937987	-2.235897461959385e-07	5.159292456456061e-06	4.620803455623696e-06	9.769194207621694e-07	8.207879427398907e-08	3.535411292973151e-06	-1.059779215265452e-08
1.52	-0.3410138641923989	-0.03627640186577922	0.7216853936500621	1.324268709624643	-0.2593968770760572	-0.02002564011468709	-0.3581323518778542	1.022926614305866	1.022926614305872	-0.02567515067241205	0.1744402854942976	0.2431070296537569	0.05294685327479318	0.3988593786366505	0.1217313710725241	0.7439820007110695	-2.588762182301455	-0.08055115432733567	-0.5002648731506493	0.5788045923306747	-2.807044372671265	-2.807044372671174	-0.4162774108176087	-0.005020240248130572	-0.7720705870986301	-0.2903241139141879	-0.2009935798133416	-0.004593890694261062	-0.007267323372645957	-0.290218995641175	0.1006327610133094	0.02652202220644815	0.200799377387077	-4.137462746918611	-10.99007609215856	1.573580693773723	-10.38752591581184	-589.8734914590784	-64.27315353731842	-7.704032430929892	1.112834010500784	0.9632692213070267	-0.8159129957890668	-1.685831118502773	0.1059976391831028	-0.8773235467819441	2.212152938679542	-1.408829880802628	-1.408829880802543	-0.1870614475536031	-0.2698767494744755	-1.005437198057012	0.2492338570790014	-2.515826462094866e-07	4.962556451822857e-06	4.697276401564923e-06	9.730810491770117e-07	3.295452925850579e-08	3.231851676232158e-06	-2.472984646892752e-08
1.53	-0.3369704343444053	-0.0350111266389786	0.7290827661903047	1.298300081948211	-0.2601967272302385	-0.02507750604663461	-0.3522346513033022	0.9947893132219356	0.9947893132219311	-0.02984280789168894	0.1743800187344849	0.2353373072021911	0.05005673079427204	0.4097353424787643	0.1313002435856565	0.7353274166431794	-2.604609582125275	-0.0793630558585933	-0.5100658970465866	0.6006535394403972	-2.82002275598914	-2.820022755989024	-0.4172281172362563	-0.007057587991353903	-0.7817269794385712	-0.2876100151438594	-0.1939879453575429	-0.004959019396060485	-0.007599852031051622	-0.2855311504552302	0.1025058744141945	0.02634422030397161	0.194710837748387	-3.171484951067179	-11.2974946406889	1.868749576820247	-10.63498264201554	-583.2393135715573	-63.99756912695157	-9.49885594301635	1.061287477534451	0.9503606276925465	-0.9150146750513884	-1.481142270838064	0.132638817801908	-1.025225083960452	2.158968126288056	-1.183362075651248	-1.183362075647362	-0.04452905673387495	-0.175263950620422	-0.9235257399041812	0.2948840424994097	-2.961630820989783e-07	4.302641868900301e-06	4.625866732714059e-06	9.221176172827817e-07	-5.350604634488078e-08	2.656439397578172e-06	-6.484048509801388e-08
1.54	-0.3328209828767016	-0.03365082981477175	0.7363886361773155	1.272183590702231	-0.2609832118263191	-0.03022612887212901	-0.3461209207518203	0.9665340244011487	0.9665340244011437	-0.03401906293868986	0.1742984584644619	0.2274754637296371	0.04719622653255212	0.4200637025796066	0.1407356905537676	0.7256814900647849	-2.618334896209753	-0.07787804270656494	-0.5196162518609589	0.6220105877169101	-2.830641920041867	-2.830641920041724	-0.4179969763634477	-0.009278942289545504	-0.7904947912961752	-0.2844004701539434	-0.1869823109017674	-0.005324148097859168	-0.007932380689333614	-0.2808433052692856	0.1043789878150829	0.02616641840149614	0.1886222981096744	-2.208150543145536	-11.60375785851166	2.162938052078641	-10.91173417578268	-576.6419318660212	-63.72156551737426	-11.33204275783611	1.003313262246552	0.9365841123027088	-1.014181497889941	-1.261413970634027	0.1653805758402491	-0.8271897304689907	2.113773172037653	-0.9369860277727902	-0.9369860277727999	-0.1506919892623765	-0.3066780604680955	-0.8277211015897286	0.3483231009964505	-3.32395916110761e-07	3.856964155223829e-06	4.620256156902074e-06	8.890591538951366e-07	-1.18562430099082e-07	2.209289877981563e-06	-9.403486705584904e-08
